<?xml version="1.0" encoding="UTF-8" standalone="no"?>
<svg
   xmlns:dc="http://purl.org/dc/elements/1.1/"
   xmlns:cc="http://creativecommons.org/ns#"
   xmlns:rdf="http://www.w3.org/1999/02/22-rdf-syntax-ns#"
   xmlns:svg="http://www.w3.org/2000/svg"
   xmlns="http://www.w3.org/2000/svg"
   version="1.1"
   id="svg2"
   viewBox="0 0 28.098842 20.708661"
   height="5.8444443mm"
   width="7.9301176mm">
  <defs
     id="defs4" />
  <metadata
     id="metadata7">
    <rdf:RDF>
      <cc:Work
         rdf:about="">
        <dc:format>image/svg+xml</dc:format>
        <dc:type
           rdf:resource="http://purl.org/dc/dcmitype/StillImage" />
        <dc:title></dc:title>
      </cc:Work>
    </rdf:RDF>
  </metadata>
  <g
     transform="translate(-289.50282,-554.4591)"
     id="layer1">
    <path
       id="path4147"
       d="m 294.37128,573.93182 -0.87573,-0.88161 9.11899,-9.11839 c 5.01545,-5.01511 9.17486,-9.11839 9.24314,-9.11839 0.0683,0 0.4902,0.36888 0.9376,0.81974 l 0.81345,0.81973 -9.18086,9.18026 -9.18086,9.18027 z m 6.87825,-1.73571 c -0.49994,-0.0929 -1.06055,-0.21143 -1.24582,-0.26339 l -0.33685,-0.0945 0.52185,-0.51216 0.52186,-0.51216 0.66336,0.25679 c 0.91695,0.35496 2.70543,0.4428 3.72057,0.18273 2.50992,-0.64301 4.50072,-2.69247 5.01326,-5.16097 0.19726,-0.95002 0.0791,-2.70021 -0.23764,-3.521 l -0.25666,-0.66502 1.11532,-1.11998 1.11533,-1.11998 0.45628,0.27006 c 0.96617,0.57186 2.6027,1.86738 3.75011,2.9687 l 1.19683,1.14874 0,0.694 0,0.69401 -1.18166,1.14258 c -3.12971,3.02623 -6.74048,5.00284 -10.25689,5.61485 -1.30523,0.22716 -3.32684,0.22568 -4.55925,-0.003 z m -7.48982,-3.3343 c -0.7532,-0.53574 -1.9394,-1.52304 -2.636,-2.19399 l -1.26656,-1.21991 0,-0.69351 0,-0.6935 1.18166,-1.14082 c 3.26029,-3.14761 7.16571,-5.20992 10.78266,-5.69393 1.31136,-0.17548 3.52381,-0.0721 4.7367,0.22128 l 0.88502,0.21409 -0.52143,0.50798 -0.52143,0.50798 -0.72717,-0.25309 c -0.91194,-0.31741 -2.52796,-0.42097 -3.43857,-0.22037 -2.5015,0.55106 -4.52702,2.49966 -5.16817,4.9719 -0.26733,1.03082 -0.19652,2.68642 0.15811,3.69646 l 0.2553,0.72717 -1.11235,1.12106 c -0.61179,0.61658 -1.14069,1.11976 -1.17534,1.11817 -0.0346,-0.002 -0.67924,-0.44123 -1.43243,-0.97697 z m 8.82297,0.17556 c 0,-0.13814 5.11936,-5.25547 5.25756,-5.25547 0.0576,0 0.0815,0.4772 0.0531,1.06046 -0.0881,1.81137 -0.87298,3.07352 -2.36933,3.81017 -0.66331,0.32654 -0.96181,0.39698 -1.86549,0.44018 -0.59171,0.0283 -1.07583,0.003 -1.07583,-0.0553 z m -3.37154,-4.37681 c 0.0635,-1.30426 0.42911,-2.18446 1.24743,-3.00277 0.75686,-0.75687 1.69518,-1.1726 2.80772,-1.244 0.48326,-0.031 0.9742,-0.0197 1.09097,0.0251 0.16926,0.065 -0.31453,0.60874 -2.38592,2.68181 -1.42903,1.43019 -2.64628,2.60034 -2.70501,2.60034 -0.0587,0 -0.0836,-0.4772 -0.0552,-1.06046 z"
       style="fill:#000000" />
  </g>
</svg>
