<?xml version="1.0" encoding="UTF-8" standalone="no"?>
<svg
   xmlns:dc="http://purl.org/dc/elements/1.1/"
   xmlns:cc="http://creativecommons.org/ns#"
   xmlns:rdf="http://www.w3.org/1999/02/22-rdf-syntax-ns#"
   xmlns:svg="http://www.w3.org/2000/svg"
   xmlns="http://www.w3.org/2000/svg"
   width="19.250046mm"
   height="19.117708mm"
   viewBox="0 0 68.208824 67.739911"
   id="svg2"
   version="1.1">
  <defs
     id="defs4" />
  <metadata
     id="metadata7">
    <rdf:RDF>
      <cc:Work
         rdf:about="">
        <dc:format>image/svg+xml</dc:format>
        <dc:type
           rdf:resource="http://purl.org/dc/dcmitype/StillImage" />
        <dc:title></dc:title>
      </cc:Work>
    </rdf:RDF>
  </metadata>
  <g
     style="fill:#dcdcdc;fill-opacity:1"
     id="layer1"
     transform="translate(-200.18143,-527.29809)">
    <path
       style="fill:#dcdcdc;fill-opacity:1"
       d="m 202.8369,592.38253 -2.30114,-2.30113 0.0259,-24.65199 0.0259,-24.65199 4.03319,-6.5625 4.03319,-6.5625 25.6319,0 25.6319,0 4.03319,6.5625 4.03319,6.5625 0.0259,24.65199 0.0259,24.65199 -2.30114,2.30113 -2.30113,2.30114 -29.14773,0 -29.14773,0 -2.30113,-2.30114 z m 39.41761,-16.44886 7.45601,-7.5 -5.83738,0 -5.83738,0 0,-7.5 0,-7.5 -3.75,0 -3.75,0 0,7.5 0,7.5 -5.83738,0 -5.83738,0 7.45601,7.5 c 4.10081,4.125 7.68674,7.5 7.96875,7.5 0.28201,0 3.86794,-3.375 7.96875,-7.5 z m 17.34375,-34.16516 c 0,-0.22834 -0.88542,-1.91584 -1.9676,-3.75 l -1.96761,-3.33484 -21.37729,0 -21.3773,0 -1.9676,3.33484 c -1.08218,1.83416 -1.9676,3.52166 -1.9676,3.75 0,0.22834 11.39062,0.41516 25.3125,0.41516 13.92187,0 25.3125,-0.18682 25.3125,-0.41516 z"
       id="path4201" />
  </g>
</svg>
