<?xml version="1.0" encoding="UTF-8" standalone="no"?>
<svg
   xmlns:dc="http://purl.org/dc/elements/1.1/"
   xmlns:cc="http://creativecommons.org/ns#"
   xmlns:rdf="http://www.w3.org/1999/02/22-rdf-syntax-ns#"
   xmlns:svg="http://www.w3.org/2000/svg"
   xmlns="http://www.w3.org/2000/svg"
   version="1.1"
   id="svg2"
   viewBox="0 0 36.65996 20.708659"
   height="5.8444438mm"
   width="10.346255mm">
  <defs
     id="defs4" />
  <metadata
     id="metadata7">
    <rdf:RDF>
      <cc:Work
         rdf:about="">
        <dc:format>image/svg+xml</dc:format>
        <dc:type
           rdf:resource="http://purl.org/dc/dcmitype/StillImage" />
        <dc:title></dc:title>
      </cc:Work>
    </rdf:RDF>
  </metadata>
  <g
     transform="translate(-109.50282,-325.92871)"
     id="layer1">
    <path
       id="path4147-8"
       d="m 124.73953,346.04972 c -4.52931,-0.81765 -9.3319,-3.48242 -13.41092,-7.44119 l -1.47146,-1.42808 0,-0.90776 0,-0.90776 1.7217,-1.64793 c 0.94694,-0.90636 2.39652,-2.12841 3.2213,-2.71567 8.49505,-6.04864 16.6044,-6.27841 24.99982,-0.70833 1.99846,1.32591 2.96431,2.11149 4.77564,3.88434 l 1.23284,1.20664 0,0.89824 0,0.89823 -1.47146,1.42808 c -4.15502,4.03254 -8.91451,6.64451 -13.59469,7.46066 -1.67738,0.29251 -4.32207,0.28393 -6.00277,-0.0195 z m 5.20512,-1.26588 c 1.57077,-0.40703 2.79765,-1.1246 4.03022,-2.35717 1.76237,-1.76238 2.60714,-3.74303 2.60714,-6.11275 0,-2.31645 -0.8049,-4.29029 -2.46872,-6.05404 -3.43941,-3.64595 -9.12156,-3.64595 -12.56098,0 -2.67179,2.83225 -3.22688,6.60527 -1.48126,10.06846 0.60213,1.19457 2.58567,3.19982 3.7053,3.74584 1.91457,0.93371 4.26162,1.20373 6.1683,0.70966 z m -3.88346,-3.01247 c -1.64441,-0.52695 -3.00265,-1.84558 -3.63906,-3.53294 -0.28084,-0.7446 -0.3346,-1.16226 -0.28224,-2.19244 0.11394,-2.24157 1.19745,-3.94276 3.11125,-4.88492 0.97712,-0.48104 1.18707,-0.52368 2.57832,-0.52368 1.30403,0 1.63884,0.0583 2.40858,0.41919 1.25723,0.5895 2.11993,1.43098 2.72344,2.65641 0.47533,0.96517 0.51854,1.17915 0.51854,2.56788 0,1.30446 -0.0582,1.63919 -0.4192,2.40897 -0.58644,1.25071 -1.43082,2.1199 -2.63556,2.71299 -0.85755,0.42217 -1.25141,0.51627 -2.32926,0.55649 -0.83633,0.0312 -1.55925,-0.0356 -2.03481,-0.18795 z m 4.8063,-7.06529 c 0.54768,-0.54768 0.57463,-0.78442 0.15068,-1.32338 -0.55304,-0.70308 -1.34075,-0.65587 -1.84286,0.11045 -0.22185,0.33859 -0.2349,0.48418 -0.0775,0.86422 0.1816,0.43843 0.64703,0.78016 1.09359,0.80293 0.11609,0.006 0.42033,-0.19848 0.67607,-0.45422 z"
       style="fill:#000000" />
  </g>
</svg>
