<?xml version="1.0" encoding="UTF-8" standalone="no"?>
<svg
   xmlns:dc="http://purl.org/dc/elements/1.1/"
   xmlns:cc="http://creativecommons.org/ns#"
   xmlns:rdf="http://www.w3.org/1999/02/22-rdf-syntax-ns#"
   xmlns:svg="http://www.w3.org/2000/svg"
   xmlns="http://www.w3.org/2000/svg"
   version="1.1"
   id="svg8360"
   viewBox="0 0 162.52494 137.35703"
   height="38.765205mm"
   width="45.868149mm">
  <defs
     id="defs8362" />
  <metadata
     id="metadata8365">
    <rdf:RDF>
      <cc:Work
         rdf:about="">
        <dc:format>image/svg+xml</dc:format>
        <dc:type
           rdf:resource="http://purl.org/dc/dcmitype/StillImage" />
        <dc:title></dc:title>
      </cc:Work>
    </rdf:RDF>
  </metadata>
  <g
     transform="translate(-281.59468,-460.82654)"
     id="layer1">
    <path
       id="path4175"
       d="m 356.26986,563.27521 c -4.81502,-0.5118 -7.42498,-1.0117 -10.90033,-2.0878 -4.20397,-1.3018 -9.17817,-3.8025 -12.66149,-6.3654 -1.65155,-1.2152 -4.86172,-4.1499 -6.41376,-5.8633 -4.8478,-5.352 -8.15819,-12.3134 -9.34862,-19.6593 -0.45781,-2.8251 -0.46388,-8.48169 -0.012,-11.15279 2.02511,-11.9695 9.33733,-22.0454 20.54802,-28.314 4.70976,-2.6335 10.85887,-4.5779 16.35089,-5.1704 14.94077,-1.6116 29.13409,3.7318 38.49634,14.4929 4.64359,5.3374 7.53731,11.3688 8.84508,18.4361 0.54528,2.9467 0.59218,9.64069 0.0863,12.31979 -0.9531,5.0476 -2.58867,9.3603 -5.0668,13.3602 -7.58906,12.2495 -20.98071,19.659 -36.15379,20.0035 -1.7106,0.039 -3.40703,0.039 -3.76989,9e-4 z m 8.19953,-4.4413 c 0.72569,-0.1004 2.35705,-0.4153 3.62526,-0.6998 13.7049,-3.0748 24.49882,-12.9679 27.96029,-25.6269 2.18337,-7.9849 1.20707,-16.58499 -2.73975,-24.13379 -5.53909,-10.5941 -16.37526,-17.9127 -28.89941,-19.518 -2.76061,-0.3539 -7.94421,-0.3562 -10.57215,0 -12.5997,1.685 -23.40375,8.9753 -28.96334,19.5435 -5.07478,9.6467 -5.11798,21.01139 -0.11636,30.60379 4.43688,8.5092 11.78345,14.7367 21.23297,17.9986 2.25813,0.7795 6.70089,1.7582 9.04775,1.9931 1.98419,0.1987 7.52442,0.1071 9.42474,-0.1558 z"
       style="fill:#0000a5;fill-opacity:1;stroke:#000000;stroke-width:0.9646228;stroke-miterlimit:4;stroke-dasharray:none;stroke-opacity:1" />
    <path
       id="path4169"
       d="m 422.72939,463.18182 -30.12099,19.4196 5.44561,4.0963 -28.89579,20.33 4.56072,4.5514 -33.18417,27.91569 44.92628,-27.61229 -3.91403,-3.6411 30.9719,-19.4197 -5.27545,-4.3997 23.48423,-15.475 z"
       style="fill:#0000a5;fill-opacity:1;fill-rule:evenodd;stroke:#000000;stroke-width:0.9646228;stroke-linecap:butt;stroke-linejoin:miter;stroke-miterlimit:4;stroke-dasharray:none;stroke-opacity:1" />
    <text
       transform="scale(0.89881669,1.1125739)"
       id="text4171"
       y="535.4671"
       x="312.13171"
       style="font-style:normal;font-weight:normal;font-size:56.10603333px;line-height:125%;font-family:sans-serif;letter-spacing:0px;word-spacing:0px;fill:#0000a5;fill-opacity:1;stroke:#000000;stroke-width:0.96462268;stroke-linecap:butt;stroke-linejoin:miter;stroke-miterlimit:4;stroke-dasharray:none;stroke-opacity:1"
       xml:space="preserve"><tspan
         style="font-style:normal;font-variant:normal;font-weight:normal;font-stretch:normal;font-size:56.10417175px;line-height:125%;font-family:Dyuthi;-inkscape-font-specification:'Dyuthi, Normal';text-align:start;writing-mode:lr-tb;text-anchor:start;fill:#0000a5;fill-opacity:1;stroke:#000000;stroke-width:0.96462268;stroke-miterlimit:4;stroke-dasharray:none;stroke-opacity:1"
         y="535.4671"
         x="312.13171"
         id="tspan4173">Obyte Zeus</tspan></text>
  </g>
</svg>
