<?xml version="1.0" encoding="UTF-8" standalone="no"?>
<!-- Created with Inkscape (http://www.inkscape.org/) -->

<svg
   xmlns:dc="http://purl.org/dc/elements/1.1/"
   xmlns:cc="http://creativecommons.org/ns#"
   xmlns:rdf="http://www.w3.org/1999/02/22-rdf-syntax-ns#"
   xmlns:svg="http://www.w3.org/2000/svg"
   xmlns="http://www.w3.org/2000/svg"
   xmlns:sodipodi="http://sodipodi.sourceforge.net/DTD/sodipodi-0.dtd"
   xmlns:inkscape="http://www.inkscape.org/namespaces/inkscape"
   width="55.521061mm"
   height="29.244131mm"
   viewBox="0 0 196.72817 103.62094"
   id="svg8360"
   version="1.1"
   inkscape:version="0.91 r13725"
   sodipodi:docname="logo-zeus-2.svg">
  <defs
     id="defs8362" />
  <sodipodi:namedview
     id="base"
     pagecolor="#ffffff"
     bordercolor="#666666"
     borderopacity="1.0"
     inkscape:pageopacity="0.0"
     inkscape:pageshadow="2"
     inkscape:zoom="0.98994949"
     inkscape:cx="-129.29946"
     inkscape:cy="-102.58555"
     inkscape:document-units="px"
     inkscape:current-layer="layer1"
     showgrid="false"
     inkscape:window-width="1920"
     inkscape:window-height="1027"
     inkscape:window-x="0"
     inkscape:window-y="0"
     inkscape:window-maximized="1"
     fit-margin-top="0.5"
     fit-margin-right="0.5"
     fit-margin-bottom="0.5"
     fit-margin-left="0.5" />
  <metadata
     id="metadata8365">
    <rdf:RDF>
      <cc:Work
         rdf:about="">
        <dc:format>image/svg+xml</dc:format>
        <dc:type
           rdf:resource="http://purl.org/dc/dcmitype/StillImage" />
        <dc:title></dc:title>
      </cc:Work>
    </rdf:RDF>
  </metadata>
  <g
     inkscape:label="Calque 1"
     inkscape:groupmode="layer"
     id="layer1"
     transform="translate(-262.79549,-477.94688)">
    <path
       style="fill:#0000a5;fill-opacity:1;stroke:#000000;stroke-width:0.85272938;stroke-miterlimit:4;stroke-dasharray:none;stroke-opacity:1"
       d="m 300.06897,568.71731 c -4.25649,-0.45243 -6.5637,-0.89434 -9.63592,-1.84562 -3.71632,-1.15079 -8.11353,-3.36142 -11.1928,-5.62703 -1.45997,-1.07424 -4.29777,-3.66852 -5.66978,-5.18317 -4.28547,-4.73119 -7.21186,-10.88509 -8.26421,-17.37888 -0.4047,-2.4974 -0.41007,-7.49784 -0.0106,-9.8591 1.7902,-10.58107 8.25422,-19.4882 18.16451,-25.02966 4.16344,-2.32802 9.59927,-4.04688 14.45423,-4.57065 13.20769,-1.42466 25.75462,3.29892 34.03088,12.81177 4.10495,4.71827 6.663,10.05005 7.81908,16.29756 0.48202,2.60489 0.52348,8.5224 0.0763,10.89073 -0.84254,4.4621 -2.28839,8.27454 -4.47906,11.81046 -6.70875,10.82859 -18.54701,17.37861 -31.96006,17.68315 -1.51217,0.0345 -3.01182,0.0345 -3.33259,8e-4 z m 7.24841,-3.92612 c 0.64151,-0.0888 2.08364,-0.36712 3.20474,-0.61862 12.11517,-2.71813 21.65703,-11.46366 24.71698,-22.65426 1.93011,-7.05867 1.06705,-14.66118 -2.42195,-21.33434 -4.89657,-9.36521 -14.47577,-15.83488 -25.54716,-17.25397 -2.44039,-0.31285 -7.02271,-0.31488 -9.34581,0 -11.13817,1.48955 -20.68899,7.93419 -25.60368,17.27651 -4.48612,8.52771 -4.52431,18.57413 -0.10286,27.05384 3.92221,7.52216 10.4166,13.02729 18.77001,15.91082 1.99619,0.68908 5.9236,1.55425 7.99823,1.76191 1.75403,0.17565 6.65161,0.0947 8.3315,-0.13773 z"
       id="path4175"
       inkscape:connector-curvature="0"
       sodipodi:nodetypes="cssssssssssssccsssssssssss"
       inkscape:export-xdpi="88.598137"
       inkscape:export-ydpi="88.598137" />
    <path
       style="fill:#0000a5;fill-opacity:1;fill-rule:evenodd;stroke:#000000;stroke-width:0.85272938;stroke-linecap:butt;stroke-linejoin:miter;stroke-miterlimit:4;stroke-dasharray:none;stroke-opacity:1"
       d="m 358.81939,480.23446 -26.62704,17.16699 4.81393,3.62114 -25.54396,17.97178 4.03169,4.02345 -29.3349,24.67755 39.71496,-24.40934 -3.46001,-3.21875 27.37925,-17.16707 -4.66352,-3.88935 20.76013,-13.67994 z"
       id="path4169"
       inkscape:connector-curvature="0"
       sodipodi:nodetypes="cccccccccccc"
       inkscape:export-xdpi="88.598137"
       inkscape:export-ydpi="88.598137" />
    <text
       xml:space="preserve"
       style="font-style:normal;font-weight:normal;font-size:52.21678543px;line-height:125%;font-family:sans-serif;letter-spacing:0px;word-spacing:0px;fill:#0000a5;fill-opacity:1;stroke:#000000;stroke-width:0.89775544;stroke-linecap:butt;stroke-linejoin:miter;stroke-miterlimit:4;stroke-dasharray:none;stroke-opacity:1"
       x="369.28357"
       y="520.57404"
       id="text4171"
       sodipodi:linespacing="125%"
       transform="scale(0.89881669,1.1125739)"
       inkscape:export-xdpi="88.598137"
       inkscape:export-ydpi="88.598137"><tspan
         sodipodi:role="line"
         id="tspan4173"
         x="369.28357"
         y="520.57404"
         style="font-style:normal;font-variant:normal;font-weight:normal;font-stretch:normal;font-size:52.21505356px;line-height:125%;font-family:Dyuthi;-inkscape-font-specification:'Dyuthi, Normal';text-align:start;writing-mode:lr-tb;text-anchor:start;fill:#0000a5;fill-opacity:1;stroke:#000000;stroke-width:0.89775544;stroke-miterlimit:4;stroke-dasharray:none;stroke-opacity:1">byte Zeus</tspan></text>
  </g>
</svg>
